<?xml version="1.0" encoding="UTF-8"?>
<!DOCTYPE svg PUBLIC "-//W3C//DTD SVG 1.1//EN" "http://www.w3.org/Graphics/SVG/1.1/DTD/svg11.dtd">
<!-- Creator: CorelDRAW 2020 (64-Bit) -->
<svg xmlns="http://www.w3.org/2000/svg" xml:space="preserve" width="309.902mm" height="309.902mm" version="1.1" style="shape-rendering:geometricPrecision; text-rendering:geometricPrecision; image-rendering:optimizeQuality; fill-rule:evenodd; clip-rule:evenodd"
viewBox="0 0 30989.12 30989.12"
 xmlns:xlink="http://www.w3.org/1999/xlink"
 xmlns:xodm="http://www.corel.com/coreldraw/odm/2003">
 <defs>
  <style type="text/css">
   <![CDATA[
    .fil2 {fill:#FEFEFE}
    .fil0 {fill:#C4BFAB}
    .fil1 {fill:#FEFEFE;fill-rule:nonzero}
   ]]>
  </style>
 </defs>
 <g id="Capa_x0020_1">
  <metadata id="CorelCorpID_0Corel-Layer"/>
  <polygon class="fil0" points="-0,30989.12 30989.12,30989.12 30989.12,0 -0,0 "/>
  <g id="_2396777450192">
   <path class="fil1" d="M19183.26 18160.81c-356.9,-197.28 -911.74,-470.15 -1270.68,-533.56 -345.2,-60.99 -691.86,-29.4 -1040.86,153.94 35.72,36.02 59.62,89.51 59.79,159.59 0.75,294.09 -386.36,256.73 -381.5,7.41 2.86,-143.57 161.21,-262.7 269.65,-358.37 135.15,-119.11 165.6,-213.62 -0.06,-325.3 -179.87,-121.23 -352.68,-253.34 -534.97,-370.82 -149.11,-96.18 -250.7,-30.14 -248.83,131.76 5.59,478.33 198.11,987 -11.87,1409.68 -435.93,877.33 -238.99,1692.95 548.78,2196 293.97,187.71 603.7,301.54 924.89,330.64 485.13,43.98 782.17,-116.75 1056.38,-154.67 -177.36,295.92 -628.89,435.47 -960.38,466.61 -257.92,24.07 -342.74,136.43 -311.09,447.21 25.35,249.12 111.9,495.47 195.6,734.53 127.45,363.59 288.53,715.61 409,1081.13 48.13,146.33 50.69,319.06 29.56,473.6 -22.19,162.36 -104.09,295.46 -319.44,276.36 -199.43,-17.61 -401.73,-3.77 -612.35,-3.77 -14.14,-259.74 113.85,-397.81 282.73,-488.33 165.9,-88.89 215.98,-206.57 164.99,-375.85 -75.57,-250.63 -150.53,-501.72 -236.18,-748.98 -160.4,-463.52 -396.83,-915.32 -177.78,-1401.62 -285.29,-134.62 -568.5,-234.01 -814.55,-391.71 -476.31,-305.16 -633.92,-798.76 -669.27,-1330.19 -27.9,-420.06 105.8,-811.61 251.77,-1205.07 150.81,-406.99 -213.1,-1085.6 37.37,-1800.55 69.19,-197.54 144.46,-212.35 342.17,-152.26 580.78,176.47 1123.67,820.54 1337.22,774.46 558.59,-120.29 824.27,-150.87 1189.33,-634.4 143.21,-189.71 101.11,-354.91 -68.23,-553 -116.67,-136.51 -245.82,-267.24 -335.61,-420.44 -98.16,-167.25 -9.46,-298.71 188.18,-310.67 120.53,-7.31 241.87,-1.36 362.91,-0.64 102.85,0.47 170.48,4.84 24.15,-87.16 -560.85,-354.47 -1124.38,-409.25 -1619.36,-939.4 -333.62,-357.18 -411.13,-839.54 -926.38,-1195.18 -649.38,-448.19 -1293.15,-591.91 -2014.27,-160.36 -681.44,407.76 -1297.03,1262.05 -1580.85,1831.57 -685.96,1376.3 650.63,2245.06 1833.04,2136.4 393.14,-36.18 773.03,-235.44 700.86,-779.51 -51.14,-385.31 -169.95,-762.58 -272.29,-1139.77 -62.57,-230.88 -153.86,-453.91 -225.76,-682.53 -41.1,-131.46 -15.88,-301.37 114.15,-67.36 366.75,659.42 636.03,1346.11 705.68,2110.81 74.46,816.73 -335.99,1006.47 -1087.68,1054.96 -380.26,24.58 -387.98,-224.59 -382.12,314.71 6.53,594.36 -303.81,1077.44 -649.52,1544.81 -867.19,1172.58 -1761.97,3118.55 -175.45,4124.5 617.76,391.65 1454.66,342.23 2052.11,-109.42 661.82,-500.37 683.56,-1059.17 447.71,-1745.51 -41.8,-121.6 -76.01,-245.91 -124.29,-403.29 308.85,65.72 398.4,292.82 467.95,500.59 378.02,1129.01 75.84,1969.86 -545.29,2415.78 -803.34,576.75 -3586.04,434.97 -4478.04,249.44 -3817.36,-793.94 -3546.75,-6031.27 -209.6,-8533.82 605.98,-454.41 1012.33,-784.73 1417.7,-1308.63 591.28,-764.03 850.45,-1363.42 1746.21,-1903.59 806.48,-486.37 1684.94,-358.14 2416.88,165.62 617.19,441.43 560.99,874.17 993.5,1351.93 291.42,321.85 680.84,537.91 1122.57,690.43 2330.48,1076.4 3811.21,2755.07 4053.89,5202.14 97.52,1116.73 -73.44,1885.8 -412.86,2611.17 -558.88,1092.85 -1731.74,1795.1 -2952.18,1789.62 -134.83,-0.45 -335.84,23.83 -339.91,-143.7 -2.71,-114.24 135.45,-288.09 251.77,-336.6 205.67,-85.95 211.98,-162.43 138.38,-355.92 -158.37,-415.78 94.08,-1013.75 489.08,-1228.9 113.23,-61.58 171.93,31.61 135.3,121.31 -54.98,134.3 -123.64,262.9 -185.21,394.57 -151.83,324.26 -109.36,568.05 131.44,763.03 297.87,241.32 691.69,274.55 948.78,65.42 429.78,-349.52 676.13,-1111.87 103.26,-1624.65 -307.87,-275.53 -653.02,-509.03 -974.13,-770.34 -116.95,-95.2 -221.69,-209.04 -316.14,-327.03 -163.09,-203.72 -198.07,-401.35 -46.86,-655.97 286.6,-482.61 386.64,-1455.68 -25.04,-1835 -138.37,-127.56 -186.77,-215.53 -148.66,-371.76 40.48,-165.98 109.49,-459.61 141.93,-618.85 105.88,-519.62 -788.46,31.51 -981.95,152.75 -16.57,55.89 30.05,120.22 86.54,171.05 53.42,48.12 509.93,425.56 494.3,478.87zm2463.82 4058.81c459.62,-490.91 448.94,-1368.31 -184.57,-1687.58 -327.82,-165.03 -530.58,-94.86 -699.6,227.91 -61.59,117.73 -220.9,145.78 -241.26,-36.41 -35.79,-321.9 337.72,-651 707.41,-650.27 526.93,1 872.74,343.4 1093.96,788.93 20.51,-289.22 15.71,-586.13 -13.17,-885.5 -230.64,-2371.29 -1161.35,-3204.13 -2791.8,-4435.1 -134.25,591.88 -246.88,879.84 -544.94,1342.21 181.99,-51.27 371.75,-80.96 568.52,-94.82 206.12,-14.54 276.19,16.67 299.64,224.67 3.92,307.15 -34.45,618.53 -140.48,917.13 -4.3,93.81 43.02,173.62 122.85,288.81 434.87,627.76 439.45,1290.72 96.78,1959.44 -146.48,285.68 -146.33,436.68 109.72,643.03 520.13,419.33 1296.02,793.53 1616.95,1397.53zm-12214.96 437.51c-6.93,-148.15 2.75,-308.77 31.16,-483.05 130.44,-800.52 789.46,-1728.14 1629.49,-1094.28 365.32,275.53 103.26,544.2 -105.58,379.98 -742.65,-584.57 -1376.47,758.88 -722.6,1581.28 533.64,671.15 1466.4,602.14 2244.46,514.3 -99.66,-108.38 -168.52,-177.48 -230.88,-252.09 -1049.15,-1255.22 -291.18,-2762.65 507.75,-3893.93 351.64,-497.73 752.44,-964.79 979.1,-1541.05 155.26,-394.72 42.55,-642.26 -337.95,-837.11 -855.69,-438.19 -1460.45,-726.38 -1299.5,-1830.63 -13.05,32.02 -1426.37,1126.77 -1612.01,1326.86 -1541.24,1661.08 -2489.14,3927.2 -1083.45,6129.72z"/>
   <path class="fil2" d="M11846.09 8630.15c0,504.42 13.34,843.37 164.51,1315.39 215.38,672.44 646.33,1403.09 1273.07,1740.89 197.58,106.5 449.26,139.14 687.3,97.33 53.42,-9.4 118.01,-24.98 149.12,-67.47 -40.35,-151.04 -130.9,-5.71 -453.9,-123.61 -160.93,-58.73 -252.23,-121.61 -362.78,-232.81 -155.37,-156.29 -419.59,-459.92 -536.14,-654.99 -497.13,-831.9 -630.3,-1696.1 -435.76,-2672.19 57.89,-290.54 184.57,-784.16 437.95,-933.65 367.35,-216.72 804.92,90.49 1029.68,426.28 511.75,764.54 717.99,1825.69 717.99,2747.17 0,235.16 -18.22,405.31 -18.03,631.66l-18.4 310.17c11.51,303.78 379.35,-322.64 379.35,-1104.26 0,-661.97 -14.22,-764.88 -145.82,-1406.26 -32.3,-157.42 -92.52,-346.63 -140.52,-491.17 -227.93,-686.4 -693.72,-1603.8 -1536.47,-1603.8 -469.68,0 -791.68,303.29 -941.01,719.38 -124.51,346.9 -250.14,829.58 -250.14,1301.96z"/>
   <path class="fil2" d="M16123.36 9965.69c0,280.08 78.36,1057.3 287.41,1282.75 47.77,51.52 -16.41,27.24 73.56,34.73 36.22,-75.49 0,-207.26 0,-324.86l0 -974.58c0,-967.42 435.7,-2413.14 1067.92,-2830.36 272.25,-179.69 693.1,-183.74 869.63,170.89 423.82,851.41 424.97,2165.13 -0.32,3008.54 -35.47,70.37 -63.84,127.1 -96.24,192.51 -153.09,309.17 -628.06,937.04 -967.55,1053.78 -68.81,23.66 -157.03,55.7 -225.71,63.05 -139.97,15.01 -167.78,-29.54 -268.73,38.08 18.48,69.23 44.36,77.27 121.42,95.13 537.25,124.6 901.84,-170.93 1227.64,-496.68 470.59,-470.55 731.91,-1092.37 866.37,-1750.53 131.81,-645.03 66.26,-1282.83 -78.38,-1861.95 -135.27,-541.62 -403.2,-1057.36 -1054.18,-1057.36 -362.47,0 -564.03,145.69 -791.66,327.29 -88.38,70.52 -163.51,162.53 -232.15,255.15 -532.35,718.24 -799.02,1893.49 -799.02,2774.42z"/>
   <path class="fil2" d="M19552.43 13484.98l264.29 -1089.27c91.54,-315.2 225.04,-697.56 379.63,-973.96 230.89,-412.77 801.18,-1329.74 1377.4,-1329.74 549.81,0 541.43,531.41 541.43,956.54 0,726.24 -277.15,1444.28 -585.11,1869.37 -242.38,334.58 -455.39,521.18 -778.86,755.18 -642.03,464.48 -799.25,157.23 -982.21,245.03 7.27,87.55 61.64,106.59 200.71,160.23 809.13,312.15 1794.8,-678.94 2151.57,-1399.45 341.16,-689 408.99,-1130.88 408.99,-1919.13 0,-562.42 -303.18,-1082.86 -884.32,-1082.86 -391.47,0 -615.89,111.75 -897.09,348.23 -66.36,55.8 -127.26,126.02 -190.31,188.68 -182.63,181.57 -504.7,647.04 -633.41,900.63 -90.53,178.37 -161.23,325.72 -238.67,519.33 -100.17,250.42 -214.29,620.02 -255.16,899.88 -30.07,206.02 -47.72,473.83 -18.99,694.38 11.26,86.4 28.14,247.63 140.12,256.94z"/>
   <path class="fil2" d="M8453.14 10850.02c0,916.04 226.39,1591.59 627.82,2187.63 148.83,221 420.53,525.03 642.84,692.67 369.58,278.71 810.92,507.79 1290.2,348.35 94.54,-31.47 192.25,-62.16 200.44,-160.53 -119.1,-57.15 -364.11,130.08 -775.48,-108.86 -116.29,-67.56 -432.83,-299.48 -537.27,-401.2 -60.22,-58.64 -104.8,-76.04 -161.88,-144.94 -100.46,-121.3 -192.11,-216.72 -283.37,-348.29 -317.34,-457.4 -588.2,-1154.31 -588.2,-1920.43 0,-394.87 36.64,-902.4 523.39,-902.4 463.58,0 889.64,530.07 1133.64,887.69l256.15 429.67c328.64,662.64 345.24,804.28 523.25,1516.14l126.35 559.48c90.4,-7.52 113.25,-64.44 137.36,-205.53 158.38,-926.44 -405.59,-2120.68 -895.36,-2772.35l-494.66 -534.05c-703.76,-551.3 -1725.2,-390.54 -1725.2,876.97z"/>
   <path class="fil2" d="M15906.79 14279.08c362.1,0 341.58,-523.37 36.11,-523.37 -266.08,0 -349.84,242.47 -216.56,433.12 18.05,25.82 36.4,42.51 68.4,57.94 21.87,10.58 88.4,32.32 112.06,32.32z"/>
   <path class="fil1" d="M18068.24 18043.25c-34.65,266.2 -390.75,274.46 -389.56,2.5 1.54,-315.64 419.31,-232.47 389.56,-2.5z"/>
   <path class="fil1" d="M17484.49 18637.4c-60.35,89.36 -125.6,141.61 -187.81,158.53 -49.05,13.68 -98.12,4.24 -139.88,-26.74 -49.27,-35.4 -92.79,-99.38 -124.54,-191.69 150.26,20.96 301.69,41.1 452.22,59.9z"/>
  </g>
 </g>
</svg>
