<?xml version="1.0" encoding="UTF-8"?>
<!DOCTYPE svg PUBLIC "-//W3C//DTD SVG 1.1//EN" "http://www.w3.org/Graphics/SVG/1.1/DTD/svg11.dtd">
<!-- Creator: CorelDRAW 2020 (64-Bit) -->
<svg xmlns="http://www.w3.org/2000/svg" xml:space="preserve" width="309.902mm" height="309.902mm" version="1.1" style="shape-rendering:geometricPrecision; text-rendering:geometricPrecision; image-rendering:optimizeQuality; fill-rule:evenodd; clip-rule:evenodd"
viewBox="0 0 30989.16 30989.17"
 xmlns:xlink="http://www.w3.org/1999/xlink"
 xmlns:xodm="http://www.corel.com/coreldraw/odm/2003">
 <defs>
  <style type="text/css">
   <![CDATA[
    .fil0 {fill:#FEFEFE}
    .fil1 {fill:#918283;fill-rule:nonzero}
    .fil2 {fill:#C4BFAB;fill-rule:nonzero}
   ]]>
  </style>
 </defs>
 <g id="Capa_x0020_1">
  <metadata id="CorelCorpID_0Corel-Layer"/>
  <polygon class="fil0" points="-0,30989.17 30989.16,30989.17 30989.16,0 -0,0 "/>
  <g id="_2396869947712">
   <g>
    <path class="fil1" d="M7382.72 12391.45l-1769.87 0 0 114.22 388.23 0 0 3202.93 -388.23 0 0 114.19 1461.57 0 0 -114.19 -388.23 0 0 -1090.48 696.53 0c1741.35,0 1741.35,-2226.66 0,-2226.66zm-696.53 2106.76l0 -1992.54 11.41 0 548.11 5.69c970.58,5.73 970.58,1986.85 0,1986.85l-559.52 0z"/>
    <path class="fil1" d="M9378.45 13669.36l-41.66 0c-233.28,70.83 -595.65,70.83 -737.26,70.83l0 83.28 283.24 0 -4.15 1299.56c0,449.83 141.62,741.41 658.09,741.41 279.09,0 599.8,-170.79 783.07,-316.56 29.14,216.6 112.46,287.39 366.52,287.39 91.67,0 299.92,-4.15 391.54,-12.49l0 -83.32 -83.32 0c-187.42,0 -187.42,-141.63 -187.42,-320.71l0 -1749.39 -41.66 0c-233.24,70.83 -595.61,70.83 -737.22,70.83l0 83.28 283.23 0 -4.18 1482.83c0,49.97 4.18,99.97 4.18,141.63 -162.44,145.77 -358.22,241.57 -537.3,241.57 -266.6,0 -395.69,-158.29 -395.69,-445.68l0 -1574.45zm3879.59 2070.1l0 -1299.52c0,-449.87 -141.62,-741.41 -658.1,-741.41 -274.9,0 -583.11,162.44 -770.54,308.22l0 -337.39 -41.66 0c-233.28,70.83 -599.8,70.83 -741.41,70.83l0 83.28 283.24 0 0 1915.99 -283.24 0 0 83.32 1066.27 0 0 -83.32 -283.2 0 0 -1628.6c166.6,-141.62 354.03,-237.39 533.12,-237.39 266.59,0 395.69,158.26 395.69,445.65l0 1420.34 -283.2 0 0 83.32 1066.27 0 0 -83.32 -283.24 0zm1047.28 -874.7l0 -2028.43 -41.66 0c-233.27,70.79 -599.79,70.79 -741.41,70.79l0 83.32 283.24 0 0 2749.03 -283.24 0 0 83.32 1066.27 0 0 -83.32 -283.2 0 0 -778.89 87.48 -54.15c54.11,-33.32 108.26,-58.3 162.4,-58.3 66.64,0 133.32,41.66 195.77,145.78l270.74 466.51c208.26,358.22 441.5,362.37 674.78,362.37l274.9 0 0 -83.32c-145.77,0 -229.09,-66.65 -304.07,-187.43l-420.67 -683.08c-79.17,-129.13 -208.26,-195.76 -370.71,-195.76 -45.81,0 -95.81,8.34 -145.81,16.64l329.05 -216.56c320.74,-212.44 470.7,-374.9 470.7,-553.98 0,-166.6 -116.65,-237.43 -241.62,-237.43 -129.09,0 -262.4,83.32 -262.4,220.75 0,124.98 104.15,170.78 104.15,279.08 0,141.63 -104.15,216.6 -258.26,316.56l-566.44 366.52zm2463.45 958.02l137.47 0 -70.83 216.59c-33.32,99.97 -95.81,179.09 -174.94,179.09 -95.81,0 -149.95,-45.81 -279.04,-45.81 -370.71,0 -333.24,483.15 24.98,483.15 241.57,0 445.68,-420.67 512.32,-608.1l774.73 -2224.24 279.05 0 0 -83.28 -649.76 0 0 83.28 279.05 0 -516.47 1491.17 -670.59 -1491.17 195.72 0 0 -83.28 -941.33 0 0 83.28 195.76 0 903.87 1999.31z"/>
    <path class="fil1" d="M20762.99 12391.45l-1769.87 0 0 114.22 388.24 0 0 3202.93 -388.24 0 0 114.19 1461.58 0 0 -114.19 -388.24 0 0 -1090.48 696.53 0c1741.36,0 1741.36,-2226.66 0,-2226.66zm-696.53 2106.76l0 -1992.54 11.42 0 548.1 5.69c970.58,5.73 970.58,1986.85 0,1986.85l-559.52 0z"/>
    <path class="fil1" d="M23858.31 15181.32c-120.79,208.26 -324.89,312.41 -537.3,312.41 -658.1,0 -933,-687.27 -837.22,-1191.25l1412.03 0c-4.19,-416.52 -429.05,-603.95 -887.22,-603.95 -1374.49,0 -1303.7,2165.91 -29.13,2165.91 358.18,0 770.54,-233.28 924.66,-662.29l-45.82 -20.83zm-1353.69 -962.16c70.83,-249.92 241.57,-437.36 508.17,-437.36 291.54,0 387.35,183.28 408.18,437.36l-916.35 0zm1376.33 -395.7l254.07 0 0 1303.71c0,449.87 141.62,741.41 658.1,741.41 291.57,0 474.85,-149.95 583.15,-333.2l-54.15 -50c-141.62,174.93 -254.11,237.42 -408.22,237.42 -233.24,0 -279.05,-187.42 -279.05,-474.85l0 -1424.49 549.8 0 0 -83.28 -549.8 0 0 -658.14 -83.32 0c-37.47,408.22 -229.09,658.14 -612.29,658.14l-58.3 0 0 83.28z"/>
   </g>
   <path class="fil2" d="M5694.71 18521.12l0 -284.66 396.4 0 0 -69.02 -396.4 0 0 -272.56 444.57 0 0 -70.14 -525.62 0 0 766.44 542.05 0 0 -70.07 -461 0zm862.79 76.64c195.99,0 285.78,-96.36 285.78,-209.14 0,-279.21 -471.91,-152.15 -471.91,-362.42 0,-76.64 62.44,-139.01 202.56,-139.01 67.9,0 144.54,20.76 210.19,63.49l27.41 -64.61c-61.32,-42.66 -151.1,-67.9 -237.6,-67.9 -194.87,0 -282.49,97.48 -282.49,210.26 0,283.54 471.91,154.38 471.91,364.58 0,75.53 -62.44,135.73 -205.85,135.73 -100.76,0 -198.16,-39.37 -252.91,-93l-31.75 62.37c56.92,59.16 169.7,99.65 284.66,99.65zm600.02 -6.57l80.98 0 0 -696.31 269.34 0 0 -70.14 -619.67 0 0 70.14 269.35 0 0 696.31zm479.54 0l81.04 0 0 -766.44 -81.04 0 0 766.44zm330.67 0l510.24 0 0 -70.07 -429.2 0 0 -696.38 -81.05 0 0 766.44zm964.61 6.57c229.98,0 401.86,-165.3 401.86,-389.76 0,-224.46 -171.87,-389.83 -401.86,-389.83 -232.15,0 -402.98,166.41 -402.98,389.83 0,223.33 170.82,389.76 402.98,389.76zm0 -72.23c-185.09,0 -323.05,-134.68 -323.05,-317.53 0,-182.85 137.96,-317.53 323.05,-317.53 183.97,0 320.81,134.68 320.81,317.53 0,182.85 -136.84,317.53 -320.81,317.53zm1157.24 -700.79l-286.83 0 0 766.44 81.05 0 0 -241.94 205.78 0c194.95,0 313.2,-98.6 313.2,-261.73 0,-164.17 -118.25,-262.77 -313.2,-262.77zm-2.16 453.31l-203.62 0 0 -383.18 203.62 0c153.27,0 234.31,70.06 234.31,192.63 0,120.49 -81.04,190.54 -234.31,190.54zm804.75 319.7c195.93,0 314.17,-113.84 314.17,-333.96l0 -439.05 -78.81 0 0 435.77c0,181.8 -85.38,265.02 -235.36,265.02 -148.93,0 -234.31,-83.22 -234.31,-265.02l0 -435.77 -81.05 0 0 439.05c0,220.12 119.37,333.96 315.36,333.96zm1119 -773.01l0 621.91 -493.87 -621.91 -66.78 0 0 766.44 81.04 0 0 -621.91 492.75 621.91 66.78 0 0 -766.44 -79.92 0zm880.27 766.44l96.36 0 -354.73 -419.34 331.73 -347.11 -93.08 0 -449.95 463.17 0 -463.17 -81.05 0 0 766.44 81.05 0 0 -201.45 156.55 -158.73 313.12 360.19zm801.4 -766.44l-286.83 0 0 766.44 81.05 0 0 -241.94 205.78 0c194.95,0 313.19,-98.6 313.19,-261.73 0,-164.17 -118.24,-262.77 -313.19,-262.77zm-2.16 453.31l-203.62 0 0 -383.18 203.62 0c153.26,0 234.31,70.06 234.31,192.63 0,120.49 -81.05,190.54 -234.31,190.54zm1024.87 313.13l85.38 0 -350.39 -766.44 -79.93 0 -350.39 766.44 84.33 0 91.95 -204.74 427.11 0 91.95 204.74zm-489.47 -270.47l183.97 -411.65 183.97 411.65 -367.95 0zm1313.95 270.47l-187.25 -262.78c111.67,-36.15 175.23,-120.41 175.23,-240.89 0,-164.17 -118.25,-262.77 -313.19,-262.77l-286.83 0 0 766.44 81.04 0 0 -243.06 205.79 0c21.95,0 41.6,-1.12 61.32,-3.29l175.23 246.35 88.66 0zm-327.38 -312.08l-203.62 0 0 -384.23 203.62 0c153.27,0 234.31,70.06 234.31,192.63 0,120.49 -81.04,191.59 -234.31,191.59zm1079.56 312.08l85.38 0 -350.33 -766.44 -79.92 0 -350.4 766.44 84.34 0 91.95 -204.74 427.03 0 91.96 204.74zm-489.4 -270.47l183.97 -411.65 183.89 411.65 -367.87 0zm1069.7 200.4l0 -284.66 396.33 0 0 -69.02 -396.33 0 0 -272.56 444.57 0 0 -70.14 -525.62 0 0 766.44 542.05 0 0 -70.07 -461 0zm651.48 70.07l510.24 0 0 -70.07 -429.2 0 0 -696.38 -81.05 0 0 766.44zm1660.91 -766.44l-329.55 568.27 -332.85 -568.27 -66.77 0 0 766.44 77.75 0 0 -609.88 301.1 512.4 38.32 0 301.09 -515.62 0 613.1 77.69 0 0 -766.44 -66.78 0zm625.19 773.01c195.93,0 314.17,-113.84 314.17,-333.96l0 -439.05 -78.8 0 0 435.77c0,181.8 -85.38,265.02 -235.37,265.02 -148.93,0 -234.31,-83.22 -234.31,-265.02l0 -435.77 -81.05 0 0 439.05c0,220.12 119.37,333.96 315.36,333.96zm1119 -773.01l0 621.91 -493.8 -621.91 -66.78 0 0 766.44 81.04 0 0 -621.91 492.69 621.91 66.78 0 0 -766.44 -79.93 0zm329.55 766.44l312.08 0c245.22,0 410.53,-157.68 410.53,-383.19 0,-225.57 -165.3,-383.26 -410.53,-383.26l-312.08 0 0 766.44zm81.05 -70.07l0 -626.24 226.62 0c203.62,0 335.01,129.15 335.01,313.12 0,183.9 -131.39,313.12 -335.01,313.12l-226.62 0zm1158.36 76.64c229.98,0 401.86,-165.3 401.86,-389.76 0,-224.46 -171.87,-389.83 -401.86,-389.83 -232.07,0 -402.9,166.41 -402.9,389.83 0,223.33 170.82,389.76 402.9,389.76zm0 -72.23c-185.01,0 -322.98,-134.68 -322.98,-317.53 0,-182.85 137.97,-317.53 322.98,-317.53 183.97,0 320.82,134.68 320.82,317.53 0,182.85 -136.85,317.53 -320.82,317.53zm1157.32 -700.79l-286.83 0 0 766.44 81.04 0 0 -241.94 205.79 0c194.94,0 313.19,-98.6 313.19,-261.73 0,-164.17 -118.25,-262.77 -313.19,-262.77zm-2.17 453.31l-203.62 0 0 -383.18 203.62 0c153.27,0 234.32,70.06 234.32,192.63 0,120.49 -81.05,190.54 -234.32,190.54zm571.56 243.06l0 -284.66 396.34 0 0 -69.02 -396.34 0 0 -272.56 444.5 0 0 -70.14 -525.54 0 0 766.44 541.98 0 0 -70.07 -460.94 0zm800.35 70.07l80.98 0 0 -696.31 269.34 0 0 -70.14 -619.67 0 0 70.14 269.35 0 0 696.31z"/>
  </g>
 </g>
</svg>
