<?xml version="1.0" encoding="UTF-8"?>
<!DOCTYPE svg PUBLIC "-//W3C//DTD SVG 1.1//EN" "http://www.w3.org/Graphics/SVG/1.1/DTD/svg11.dtd">
<!-- Creator: CorelDRAW 2020 (64-Bit) -->
<svg xmlns="http://www.w3.org/2000/svg" xml:space="preserve" width="309.902mm" height="309.902mm" version="1.1" style="shape-rendering:geometricPrecision; text-rendering:geometricPrecision; image-rendering:optimizeQuality; fill-rule:evenodd; clip-rule:evenodd"
viewBox="0 0 30989.12 30989.14"
 xmlns:xlink="http://www.w3.org/1999/xlink"
 xmlns:xodm="http://www.corel.com/coreldraw/odm/2003">
 <defs>
  <style type="text/css">
   <![CDATA[
    .fil0 {fill:none}
    .fil2 {fill:#2C4B4D}
    .fil1 {fill:#2C4B4D;fill-rule:nonzero}
    .fil3 {fill:#918283;fill-rule:nonzero}
    .fil4 {fill:#C4BFAB;fill-rule:nonzero}
   ]]>
  </style>
 </defs>
 <g id="Capa_x0020_1">
  <metadata id="CorelCorpID_0Corel-Layer"/>
  <polygon class="fil0" points="-0,0 30989.12,0 30989.12,30989.13 -0,30989.13 "/>
  <g id="_2396777943760">
   <g>
    <path class="fil1" d="M17884.96 13883.32c-263.08,-145.43 -672.07,-346.56 -936.65,-393.31 -254.45,-44.96 -509.99,-21.67 -767.25,113.48 26.34,26.56 43.95,65.98 44.08,117.64 0.55,216.79 -284.8,189.24 -281.21,5.47 2.1,-105.83 118.84,-193.64 198.76,-264.16 99.62,-87.8 122.07,-157.46 -0.05,-239.79 -132.59,-89.36 -259.96,-186.74 -394.34,-273.33 -109.92,-70.9 -184.79,-22.22 -183.41,97.12 4.11,352.59 146.04,727.55 -8.75,1039.11 -321.35,646.7 -176.17,1247.91 404.52,1618.72 216.69,138.37 445,222.27 681.76,243.72 357.61,32.42 576.56,-86.06 778.69,-114.01 -130.75,218.12 -463.57,320.99 -707.93,343.95 -190.12,17.74 -252.64,100.56 -229.3,329.65 18.68,183.63 82.47,365.23 144.18,541.44 93.95,268.01 212.68,527.49 301.48,796.93 35.48,107.87 37.36,235.19 21.79,349.11 -16.35,119.68 -76.72,217.79 -235.46,203.71 -147.01,-12.98 -296.13,-2.78 -451.38,-2.78 -10.42,-191.46 83.93,-293.23 208.41,-359.97 122.3,-65.52 159.2,-152.26 121.62,-277.04 -55.7,-184.75 -110.96,-369.83 -174.09,-552.1 -118.24,-341.67 -292.51,-674.7 -131.05,-1033.16 -210.29,-99.23 -419.06,-172.49 -600.43,-288.74 -351.1,-224.94 -467.27,-588.78 -493.32,-980.52 -20.57,-309.63 77.98,-598.26 185.57,-888.28 111.18,-300 -157.07,-800.23 27.55,-1327.23 51.01,-145.62 106.49,-156.53 252.22,-112.24 428.11,130.09 828.29,604.84 985.7,570.87 411.76,-88.67 607.6,-111.22 876.69,-467.62 105.56,-139.85 74.53,-261.61 -50.3,-407.64 -85.99,-100.62 -181.19,-196.98 -247.37,-309.91 -72.36,-123.29 -6.98,-220.18 138.71,-229 88.84,-5.39 178.29,-1 267.51,-0.47 75.81,0.35 125.67,3.57 17.8,-64.25 -413.42,-261.28 -828.81,-301.67 -1193.67,-692.46 -245.92,-263.28 -303.05,-618.84 -682.86,-880.99 -478.67,-330.38 -953.21,-436.32 -1484.77,-118.21 -502.3,300.56 -956.07,930.28 -1165.28,1350.09 -505.63,1014.5 479.59,1654.88 1351.17,1574.79 289.79,-26.67 569.82,-173.55 516.61,-574.6 -37.69,-284.02 -125.28,-562.12 -200.71,-840.15 -46.11,-170.18 -113.41,-334.59 -166.4,-503.11 -30.3,-96.9 -11.71,-222.14 84.14,-49.65 270.34,486.07 468.83,992.26 520.17,1555.93 54.88,602.04 -247.67,741.89 -801.76,777.64 -280.29,18.11 -285.98,-165.55 -281.66,231.98 4.81,438.12 -223.95,794.2 -478.78,1138.71 -639.22,864.33 -1298.79,2298.76 -129.33,3040.27 455.36,288.69 1072.26,252.27 1512.66,-80.65 487.84,-368.84 503.87,-780.74 330.03,-1286.67 -30.82,-89.63 -56.04,-181.26 -91.63,-297.27 227.66,48.45 293.67,215.85 344.94,369 278.65,832.22 55.91,1452.04 -401.94,1780.74 -592.17,425.14 -2643.36,320.63 -3300.88,183.86 -2813.86,-585.23 -2614.39,-4445.8 -154.49,-6290.48 446.67,-334.96 746.2,-578.44 1045.01,-964.63 435.86,-563.19 626.89,-1005.02 1287.18,-1403.19 594.48,-358.52 1242.01,-263.99 1781.54,122.09 454.94,325.4 413.53,644.38 732.33,996.55 214.8,237.24 501.86,396.51 827.47,508.93 1717.85,793.44 2809.33,2030.83 2988.22,3834.63 71.89,823.17 -54.13,1390.06 -304.32,1924.75 -411.97,805.57 -1276.52,1323.2 -2176.13,1319.17 -99.39,-0.33 -247.55,17.56 -250.55,-105.93 -2,-84.2 99.84,-212.35 185.58,-248.11 151.6,-63.36 156.25,-119.74 102.01,-262.36 -116.75,-306.47 69.34,-747.25 360.51,-905.85 83.47,-45.39 126.74,23.3 99.73,89.43 -40.52,98.99 -91.13,193.78 -136.53,290.84 -111.93,239.02 -80.61,418.73 96.89,562.45 219.56,177.88 509.85,202.37 699.37,48.22 316.8,-257.64 498.39,-819.59 76.12,-1197.57 -226.94,-203.1 -481.36,-375.22 -718.06,-567.84 -86.2,-70.18 -163.41,-154.09 -233.03,-241.06 -120.23,-150.16 -146.01,-295.84 -34.54,-483.53 211.25,-355.75 284.99,-1073.01 -18.46,-1352.62 -102,-94.02 -137.68,-158.86 -109.59,-274.02 29.84,-122.36 80.71,-338.8 104.62,-456.17 78.05,-383.03 -581.19,23.22 -723.82,112.6 -12.21,41.2 22.15,88.62 63.79,126.1 39.38,35.46 375.88,313.69 364.37,352.99zm1816.15 2991.85c338.79,-361.87 330.92,-1008.62 -136.07,-1243.96 -241.64,-121.65 -391.1,-69.93 -515.68,167.99 -45.4,86.79 -162.83,107.47 -177.83,-26.83 -26.39,-237.28 248.93,-479.87 521.43,-479.33 388.42,0.74 643.33,253.13 806.39,581.54 15.12,-213.19 11.58,-432.06 -9.71,-652.72 -170.01,-1747.94 -856.06,-2361.85 -2057.9,-3269.23 -98.96,436.3 -181.98,648.56 -401.7,989.39 134.16,-37.79 274.03,-59.68 419.08,-69.9 151.93,-10.71 203.58,12.29 220.87,165.61 2.89,226.4 -25.4,455.93 -103.55,676.04 -3.18,69.15 31.71,127.98 90.55,212.89 320.56,462.73 323.93,951.42 71.34,1444.35 -107.98,210.58 -107.87,321.89 80.88,473.99 383.4,309.1 955.33,584.93 1191.9,1030.15zm-9003.95 322.5c-5.11,-109.21 2.02,-227.6 22.97,-356.07 96.15,-590.09 581.93,-1273.86 1201.14,-806.62 269.28,203.1 76.11,401.15 -77.83,280.09 -547.43,-430.91 -1014.63,559.39 -532.64,1165.6 393.37,494.71 1080.92,443.85 1654.45,379.1 -73.46,-79.88 -124.23,-130.83 -170.18,-185.81 -773.36,-925.26 -214.64,-2036.43 374.27,-2870.31 259.2,-366.89 554.64,-711.18 721.72,-1135.95 114.46,-290.95 31.37,-473.41 -249.1,-617.05 -630.76,-323 -1076.54,-535.44 -957.9,-1349.4 -9.61,23.6 -1051.41,830.57 -1188.25,978.07 -1136.09,1224.43 -1834.82,2894.84 -798.64,4518.37z"/>
    <path class="fil2" d="M12476.54 6858.03c0,371.83 9.84,621.67 121.28,969.61 158.75,495.67 476.42,1034.25 938.41,1283.26 145.64,78.5 331.16,102.56 506.62,71.75 39.37,-6.93 86.99,-18.42 109.93,-49.73 -29.75,-111.35 -96.5,-4.22 -334.59,-91.13 -118.63,-43.28 -185.92,-89.64 -267.41,-171.6 -114.54,-115.21 -309.29,-339.02 -395.21,-482.8 -366.45,-613.22 -464.6,-1250.25 -321.22,-1969.74 42.68,-214.16 136.06,-578.02 322.84,-688.22 270.77,-159.74 593.32,66.7 758.99,314.22 377.24,563.57 529.25,1345.76 529.25,2025 0,173.34 -13.43,298.76 -13.29,465.61l-13.56 228.64c8.48,223.91 279.62,-237.83 279.62,-813.98 0,-487.95 -10.48,-563.82 -107.49,-1036.59 -23.81,-116.04 -68.2,-255.5 -103.59,-362.06 -168.01,-505.96 -511.35,-1182.2 -1132.56,-1182.2 -346.22,0 -583.57,223.56 -693.64,530.27 -91.78,255.71 -184.39,611.5 -184.39,959.7z"/>
    <path class="fil2" d="M15629.44 7842.48c0,206.45 57.76,779.36 211.85,945.55 35.21,37.98 -12.1,20.08 54.22,25.59 26.7,-55.64 0,-152.77 0,-239.46l0 -718.38c0,-713.11 321.17,-1778.79 787.19,-2086.33 200.68,-132.46 510.89,-135.45 641.03,125.97 312.4,627.6 313.25,1595.97 -0.23,2217.67 -26.15,51.87 -47.07,93.68 -70.95,141.9 -112.85,227.9 -462.95,690.72 -713.2,776.77 -50.72,17.44 -115.76,41.06 -166.38,46.48 -103.17,11.06 -123.68,-21.78 -198.08,28.06 13.62,51.04 32.69,56.96 89.5,70.13 396.02,91.84 664.77,-126 904.92,-366.12 346.89,-346.86 539.51,-805.21 638.63,-1290.36 97.15,-475.46 48.84,-945.61 -57.78,-1372.48 -99.71,-399.25 -297.2,-779.41 -777.06,-779.41 -267.18,0 -415.77,107.4 -583.56,241.25 -65.14,51.98 -120.53,119.81 -171.12,188.08 -392.41,529.42 -588.97,1395.73 -588.97,2045.09z"/>
    <path class="fil2" d="M18157.08 10436.64l194.82 -802.93c67.47,-232.34 165.87,-514.18 279.83,-717.93 170.19,-304.26 590.57,-980.19 1015.32,-980.19 405.28,0 399.11,391.72 399.11,705.09 0,535.33 -204.3,1064.61 -431.3,1377.95 -178.67,246.63 -335.69,384.18 -574.13,556.67 -473.24,342.38 -589.15,115.9 -724.01,180.61 5.36,64.54 45.44,78.57 147.94,118.12 596.44,230.09 1322.99,-500.46 1585.98,-1031.56 251.48,-507.88 301.48,-833.6 301.48,-1414.64 0,-414.59 -223.48,-798.2 -651.86,-798.2 -288.56,0 -453.98,82.37 -661.27,256.68 -48.91,41.14 -93.81,92.89 -140.28,139.09 -134.64,133.85 -372.04,476.94 -466.9,663.88 -66.74,131.49 -118.86,240.09 -175.93,382.81 -73.84,184.59 -157.96,457.03 -188.08,663.33 -22.17,151.86 -35.18,349.28 -14,511.84 8.3,63.68 20.74,182.53 103.28,189.39z"/>
    <path class="fil2" d="M9975.52 8494.34c0,675.24 166.88,1173.2 462.78,1612.56 109.71,162.9 309.98,387.02 473.84,510.58 272.43,205.44 597.76,374.31 951.04,256.77 69.69,-23.19 141.72,-45.82 147.74,-118.34 -87.79,-42.12 -268.38,95.89 -571.62,-80.24 -85.72,-49.8 -319.05,-220.75 -396.04,-295.73 -44.39,-43.23 -77.25,-56.05 -119.33,-106.85 -74.06,-89.41 -141.62,-159.75 -208.88,-256.73 -233.91,-337.16 -433.58,-850.87 -433.58,-1415.6 0,-291.06 27.01,-665.18 385.81,-665.18 341.72,0 655.77,390.73 835.63,654.34l188.82 316.72c242.24,488.44 254.48,592.86 385.7,1117.58l93.13 412.41c66.64,-5.54 83.48,-47.5 101.26,-151.49 116.75,-682.91 -298.97,-1563.21 -660,-2043.58l-364.63 -393.67c-518.75,-406.38 -1271.69,-287.87 -1271.69,646.44z"/>
    <path class="fil2" d="M15469.79 11021.99c266.91,0 251.78,-385.8 26.62,-385.8 -196.14,0 -257.88,178.73 -159.64,319.27 13.31,19.03 26.84,31.33 50.43,42.71 16.12,7.79 65.16,23.82 82.6,23.82z"/>
    <path class="fil1" d="M17063.05 13796.65c-25.55,196.23 -288.03,202.31 -287.15,1.85 1.13,-232.67 309.08,-171.36 287.15,-1.85z"/>
    <path class="fil1" d="M16632.75 14234.61c-44.49,65.87 -92.58,104.38 -138.45,116.86 -36.16,10.09 -72.33,3.13 -103.11,-19.7 -36.31,-26.1 -68.4,-73.26 -91.8,-141.31 110.76,15.44 222.38,30.29 333.35,44.15z"/>
   </g>
   <g>
    <path class="fil3" d="M7154.25 19239.95l-1819.72 0 0 117.44 399.17 0 0 3293.15 -399.17 0 0 117.4 1502.74 0 0 -117.4 -399.17 0 0 -1121.2 716.15 0c1790.41,0 1790.41,-2289.38 0,-2289.38zm-716.15 2166.11l0 -2048.67 11.74 0 563.54 5.85c997.93,5.88 997.93,2042.82 0,2042.82l-575.28 0z"/>
    <path class="fil3" d="M9206.2 20553.86l-42.83 0c-239.85,72.83 -612.42,72.83 -758.03,72.83l0 85.63 291.22 0 -4.27 1336.15c0,462.51 145.61,762.3 676.64,762.3 286.95,0 616.69,-175.6 805.13,-325.48 29.95,222.7 115.62,295.49 376.84,295.49 94.25,0 308.37,-4.27 402.57,-12.85l0 -85.66 -85.67 0c-192.7,0 -192.7,-145.62 -192.7,-329.75l0 -1798.67 -42.84 0c-239.8,72.83 -612.38,72.83 -757.98,72.83l0 85.63 291.21 0 -4.3 1524.6c0,51.37 4.3,102.78 4.3,145.61 -167.02,149.87 -368.31,248.39 -552.44,248.39 -274.1,0 -406.84,-162.76 -406.84,-458.24l0 -1618.8zm3988.87 2128.42l0 -1336.12c0,-462.54 -145.61,-762.29 -676.63,-762.29 -282.64,0 -599.54,167.02 -792.25,316.9l0 -346.9 -42.83 0c-239.85,72.83 -616.7,72.83 -762.3,72.83l0 85.63 291.22 0 0 1969.96 -291.22 0 0 85.66 1096.31 0 0 -85.66 -291.18 0 0 -1674.48c171.29,-145.61 364,-244.07 548.13,-244.07 274.11,0 406.84,162.71 406.84,458.2l0 1460.35 -291.18 0 0 85.66 1096.31 0 0 -85.66 -291.22 0zm1076.79 -899.34l0 -2085.58 -42.83 0c-239.85,72.79 -616.7,72.79 -762.3,72.79l0 85.67 291.22 0 0 2826.46 -291.22 0 0 85.66 1096.31 0 0 -85.66 -291.18 0 0 -800.83 89.94 -55.67c55.63,-34.26 111.31,-59.95 166.98,-59.95 68.52,0 137.08,42.84 201.28,149.87l278.37 479.66c214.12,368.31 453.93,372.57 693.79,372.57l282.64 0 0 -85.66c-149.87,0 -235.54,-68.52 -312.63,-192.71l-432.53 -702.32c-81.4,-132.77 -214.12,-201.28 -381.15,-201.28 -47.1,0 -98.51,8.57 -149.91,17.11l338.32 -222.66c329.78,-218.43 483.96,-385.46 483.96,-569.59 0,-171.29 -119.93,-244.11 -248.42,-244.11 -132.73,0 -269.8,85.67 -269.8,226.96 0,128.5 107.09,175.6 107.09,286.95 0,145.61 -107.09,222.7 -265.54,325.48l-582.39 376.84zm2532.83 985l141.34 0 -72.82 222.7c-34.26,102.78 -98.51,184.13 -179.86,184.13 -98.52,0 -154.18,-47.1 -286.91,-47.1 -381.16,0 -342.63,496.76 25.68,496.76 248.38,0 458.24,-432.52 526.76,-625.22l796.55 -2286.9 286.91 0 0 -85.63 -668.06 0 0 85.63 286.91 0 -531.02 1533.18 -689.48 -1533.18 201.24 0 0 -85.63 -967.86 0 0 85.63 201.28 0 929.33 2055.62z"/>
    <path class="fil3" d="M20911.43 19239.95l-1819.73 0 0 117.44 399.18 0 0 3293.15 -399.18 0 0 117.4 1502.75 0 0 -117.4 -399.17 0 0 -1121.2 716.15 0c1790.41,0 1790.41,-2289.38 0,-2289.38zm-716.15 2166.11l0 -2048.67 11.74 0 563.54 5.85c997.93,5.88 997.93,2042.82 0,2042.82l-575.28 0z"/>
    <path class="fil3" d="M24093.96 22108.41c-124.2,214.12 -334.05,321.21 -552.44,321.21 -676.64,0 -959.28,-706.63 -860.81,-1224.81l1451.82 0c-4.31,-428.26 -441.13,-620.96 -912.22,-620.96 -1413.21,0 -1340.42,2226.91 -29.95,2226.91 368.27,0 792.25,-239.85 950.7,-680.95l-47.1 -21.41zm-1391.83 -989.27c72.82,-256.96 248.38,-449.66 522.49,-449.66 299.75,0 398.26,188.43 419.68,449.66l-942.17 0zm1415.1 -406.84l261.23 0 0 1340.42c0,462.54 145.61,762.3 676.63,762.3 299.8,0 488.23,-154.18 599.59,-342.59l-55.68 -51.41c-145.61,179.86 -261.26,244.12 -419.72,244.12 -239.81,0 -286.91,-192.71 -286.91,-488.23l0 -1464.62 565.28 0 0 -85.63 -565.28 0 0 -676.68 -85.67 0c-38.53,419.72 -235.54,676.68 -629.53,676.68l-59.95 0 0 85.63z"/>
   </g>
   <path class="fil4" d="M5417.75 25542.28l0 -292.7 407.55 0 0 -70.93 -407.55 0 0 -280.3 457.09 0 0 -72.05 -540.39 0 0 788.02 557.27 0 0 -72.05 -473.97 0zm887.13 78.81c201.49,0 293.82,-99.09 293.82,-215.02 0,-287.08 -485.2,-156.48 -485.2,-372.62 0,-78.81 64.17,-142.98 208.25,-142.98 69.81,0 148.61,21.37 216.16,65.29l28.13 -66.43c-63.05,-43.89 -155.34,-69.79 -244.29,-69.79 -200.37,0 -290.44,100.2 -290.44,216.13 0,291.59 485.2,158.73 485.2,374.89 0,77.69 -64.17,139.6 -211.63,139.6 -103.59,0 -203.76,-40.54 -260.05,-95.68l-32.65 64.16c58.55,60.79 174.47,102.45 292.7,102.45zm616.94 -6.76l83.3 0 0 -715.98 276.92 0 0 -72.05 -637.19 0 0 72.05 276.97 0 0 715.98zm493.08 0l83.3 0 0 -788.02 -83.3 0 0 788.02zm339.99 0l524.59 0 0 -72.05 -441.28 0 0 -715.98 -83.31 0 0 788.02zm991.83 6.76c236.39,0 413.14,-169.98 413.14,-400.79 0,-230.77 -176.74,-400.76 -413.14,-400.76 -238.7,0 -414.3,171.1 -414.3,400.76 0,229.65 175.59,400.79 414.3,400.79zm0 -74.31c-190.26,0 -332.14,-138.48 -332.14,-326.48 0,-188 141.88,-326.45 332.14,-326.45 189.12,0 329.83,138.45 329.83,326.45 0,188 -140.71,326.48 -329.83,326.48zm1189.92 -720.48l-294.94 0 0 788.02 83.31 0 0 -248.79 211.63 0c200.4,0 321.98,-101.32 321.98,-269.07 0,-168.84 -121.58,-270.16 -321.98,-270.16zm-2.24 466.04l-209.39 0 0 -394 209.39 0c157.61,0 240.91,72.04 240.91,198.11 0,123.84 -83.3,195.88 -240.91,195.88zm827.43 328.74c201.52,0 323.1,-117.08 323.1,-343.36l0 -451.42 -81.04 0 0 448.04c0,186.86 -87.83,272.43 -242.06,272.43 -153.08,0 -240.91,-85.57 -240.91,-272.43l0 -448.04 -83.32 0 0 451.42c0,226.28 122.74,343.36 324.23,343.36zm1150.56 -794.78l0 639.43 -507.72 -639.43 -68.69 0 0 788.02 83.33 0 0 -639.44 506.6 639.44 68.66 0 0 -788.02 -82.18 0zm905.12 788.02l99.08 0 -364.75 -431.18 341.12 -356.85 -95.71 0 -462.68 476.18 0 -476.18 -83.33 0 0 788.02 83.33 0 0 -207.14 160.98 -163.22 321.96 370.37zm824.07 -788.02l-294.94 0 0 788.02 83.31 0 0 -248.79 211.63 0c200.4,0 321.98,-101.32 321.98,-269.07 0,-168.84 -121.58,-270.16 -321.98,-270.16zm-2.24 466.04l-209.39 0 0 -394 209.39 0c157.61,0 240.91,72.04 240.91,198.11 0,123.84 -83.3,195.88 -240.91,195.88zm1053.71 321.98l87.83 0 -360.25 -788.02 -82.19 0 -360.25 788.02 86.68 0 94.57 -210.52 439.04 0 94.57 210.52zm-503.22 -278.07l189.14 -423.27 189.12 423.27 -378.27 0zm1350.93 278.07l-192.5 -270.19c114.84,-37.15 180.12,-123.84 180.12,-247.67 0,-168.84 -121.58,-270.16 -321.98,-270.16l-294.96 0 0 788.02 83.31 0 0 -249.91 211.65 0c22.52,0 42.8,-1.14 63.05,-3.38l180.13 253.29 91.18 0zm-336.59 -320.84l-209.42 0 0 -395.14 209.42 0c157.6,0 240.91,72.04 240.91,198.11 0,123.84 -83.31,197.02 -240.91,197.02zm1109.99 320.84l87.83 0 -360.27 -788.02 -82.19 0 -360.23 788.02 86.69 0 94.56 -210.52 439.05 0 94.56 210.52zm-503.22 -278.07l189.12 -423.27 189.14 423.27 -378.27 0zm1099.86 206.02l0 -292.7 407.54 0 0 -70.93 -407.54 0 0 -280.3 457.09 0 0 -72.05 -540.4 0 0 788.02 557.27 0 0 -72.05 -473.96 0zm669.85 72.05l524.62 0 0 -72.05 -441.31 0 0 -715.98 -83.31 0 0 788.02zm1707.8 -788.02l-338.85 584.26 -342.26 -584.26 -68.67 0 0 788.02 79.93 0 0 -627.06 309.6 526.85 39.41 0 309.58 -530.21 0 630.42 79.93 0 0 -788.02 -68.67 0zm642.84 794.78c201.51,0 323.09,-117.08 323.09,-343.36l0 -451.42 -81.04 0 0 448.04c0,186.86 -87.83,272.43 -242.05,272.43 -153.11,0 -240.94,-85.57 -240.94,-272.43l0 -448.04 -83.3 0 0 451.42c0,226.28 122.72,343.36 324.24,343.36zm1150.55 -794.78l0 639.43 -507.74 -639.43 -68.67 0 0 788.02 83.31 0 0 -639.44 506.62 639.44 68.66 0 0 -788.02 -82.18 0zm338.85 788.02l320.84 0c252.19,0 422.18,-162.11 422.18,-394.03 0,-231.89 -169.98,-394 -422.18,-394l-320.84 0 0 788.02zm83.31 -72.05l0 -643.93 233.03 0c209.42,0 344.52,132.83 344.52,321.95 0,189.14 -135.1,321.98 -344.52,321.98l-233.03 0zm1191.08 78.81c236.41,0 413.16,-169.98 413.16,-400.79 0,-230.77 -176.74,-400.76 -413.16,-400.76 -238.67,0 -414.28,171.1 -414.28,400.76 0,229.65 175.6,400.79 414.28,400.79zm0 -74.31c-190.26,0 -332.11,-138.48 -332.11,-326.48 0,-188 141.85,-326.45 332.11,-326.45 189.14,0 329.86,138.45 329.86,326.45 0,188 -140.72,326.48 -329.86,326.48zm1189.95 -720.48l-294.97 0 0 788.02 83.33 0 0 -248.79 211.64 0c200.4,0 321.97,-101.32 321.97,-269.07 0,-168.84 -121.57,-270.16 -321.97,-270.16zm-2.24 466.04l-209.4 0 0 -394 209.4 0c157.6,0 240.91,72.04 240.91,198.11 0,123.84 -83.31,195.88 -240.91,195.88zm587.64 249.93l0 -292.7 407.54 0 0 -70.93 -407.54 0 0 -280.3 457.09 0 0 -72.05 -540.4 0 0 788.02 557.27 0 0 -72.05 -473.96 0zm822.96 72.05l83.3 0 0 -715.98 276.95 0 0 -72.05 -637.2 0 0 72.05 276.95 0 0 715.98z"/>
  </g>
 </g>
</svg>
